
<svg width="20" height="20" viewBox="0 0 20 20" fill="none" xmlns="http://www.w3.org/2000/svg">
<g clip-path="url(#clip0_331_19259)">
<g clip-path="url(#clip1_331_19259)">
<path d="M-3.63672 -0.227264H23.636V20.2273H-3.63672V-0.227264Z" fill="#012169"/>
<path d="M-0.440696 -0.227264L9.95703 7.4858L20.3121 -0.227264H23.636V2.41478L13.4087 10.0426L23.636 17.6278V20.2273H20.2269L9.99965 12.5994L-0.185014 20.2273H-3.63672V17.6705L6.54794 10.0852L-3.63672 2.50001V-0.227264H-0.440696Z" fill="white"/>
<path d="M14.4315 11.7472L23.636 18.5227V20.2273L12.0877 11.7472H14.4315ZM6.59055 12.5994L6.84624 14.0909L-1.33558 20.2273H-3.63672L6.59055 12.5994ZM23.636 -0.227264V-0.0994235L13.0252 7.91194L13.1104 6.03694L21.5053 -0.227264H23.636ZM-3.63672 -0.227264L6.54794 7.27274H3.99112L-3.63672 1.56251V-0.227264Z" fill="#C8102E"/>
<path d="M6.63317 -0.227264V20.2273H13.4513V-0.227264H6.63317ZM-3.63672 6.59092V13.4091H23.636V6.59092H-3.63672Z" fill="white"/>
<path d="M-3.63672 7.99717V12.0881H23.636V7.99717H-3.63672ZM7.9968 -0.227264V20.2273H12.0877V-0.227264H7.9968Z" fill="#C8102E"/>
</g>
</g>
<defs>
<clipPath id="clip0_331_19259">
<rect width="20" height="20" rx="10" fill="white"/>
</clipPath>
<clipPath id="clip1_331_19259">
<rect width="27.2727" height="20.4545" fill="white" transform="translate(-3.63672 -0.227264)"/>
</clipPath>
</defs>
</svg>
