
<svg width="141" height="41" viewBox="0 0 141 41" fill="none" xmlns="http://www.w3.org/2000/svg">
<path d="M38.4844 6.14128L9.07957 6.20282C4.84782 6.21168 1.4378 9.09615 1.49043 12.6224L1.67487 24.9795C1.72717 28.4835 5.18041 31.2877 9.38518 31.2407L24.0781 31.0765C26.9861 31.044 29.6621 32.3957 30.9726 34.5593L33.4124 38.5871C34.0555 39.6486 35.9405 39.4552 36.2552 38.2953L37.7418 32.8166C38.0207 31.7885 39.0635 31.0278 40.3233 30.9334C43.2622 30.7133 45.5399 28.6975 45.6272 26.2397L46.109 12.6695C46.2361 9.08944 42.7823 6.13228 38.4844 6.14128Z" stroke="#0C0F12" stroke-width="2"/>
<path d="M14.0835 25.9332V12.5428H17.9934V17.9172H24.3677V12.5428H28.2697V25.9332H24.3677V20.5522H17.9934V25.9332H14.0835Z" fill="#0C0F12"/>
<path d="M30.2774 25.9332V15.8904H34.1399V25.9332H30.2774ZM32.2126 14.72C31.6702 14.72 31.2042 14.5718 30.8145 14.2754C30.4249 13.9746 30.23 13.6129 30.23 13.1901C30.23 12.7716 30.4249 12.4142 30.8145 12.1178C31.2042 11.817 31.6702 11.6666 32.2126 11.6666C32.7603 11.6666 33.2263 11.817 33.6107 12.1178C34.0004 12.4142 34.1952 12.7716 34.1952 13.1901C34.1952 13.6129 34.0004 13.9746 33.6107 14.2754C33.2263 14.5718 32.7603 14.72 32.2126 14.72Z" fill="#0C0F12"/>
<path d="M68.9605 16.6781H65.4249C65.3603 16.2969 65.2285 15.9584 65.0294 15.6624C64.8303 15.3619 64.5746 15.1063 64.2625 14.8955C63.9504 14.6848 63.5898 14.5233 63.1808 14.4112C62.7772 14.2991 62.3386 14.243 61.8651 14.243C61.0094 14.243 60.2641 14.4202 59.6291 14.7744C58.9941 15.1242 58.5017 15.6355 58.1519 16.3082C57.8021 16.9764 57.6272 17.7881 57.6272 18.7433C57.6272 19.7254 57.8021 20.5505 58.1519 21.2187C58.507 21.8869 59.0021 22.3914 59.6372 22.7323C60.2722 23.0731 61.0067 23.2435 61.8409 23.2435C62.309 23.2435 62.7422 23.1919 63.1405 23.0888C63.5441 22.9856 63.902 22.8354 64.2141 22.6381C64.5262 22.4363 64.7845 22.1919 64.989 21.9049C65.1989 21.6179 65.3442 21.2905 65.4249 20.9228L68.9605 20.9362C68.869 21.5685 68.6403 22.1784 68.2744 22.7659C67.9138 23.3489 67.4268 23.8713 66.8133 24.3332C66.2052 24.7907 65.4787 25.1539 64.6338 25.423C63.7943 25.6876 62.8445 25.8199 61.7844 25.8199C60.3098 25.8199 58.9914 25.5418 57.829 24.9857C56.672 24.4297 55.7571 23.6247 55.0844 22.5708C54.4171 21.517 54.0835 20.2411 54.0835 18.7433C54.0835 17.2409 54.4225 15.9628 55.1006 14.909C55.7787 13.8551 56.6989 13.0524 57.8613 12.5008C59.0237 11.9447 60.3314 11.6667 61.7844 11.6667C62.7422 11.6667 63.6302 11.7788 64.4482 12.003C65.2715 12.2272 66.0007 12.5546 66.6357 12.9851C67.2707 13.4111 67.7874 13.9336 68.1856 14.5525C68.5892 15.1713 68.8475 15.8799 68.9605 16.6781Z" fill="#0C0F12"/>
<path d="M74.3865 11.855V25.6315H70.9477V11.855H74.3865Z" fill="#0C0F12"/>
<path d="M80.2221 25.8266C79.431 25.8266 78.726 25.7122 78.1072 25.4835C77.4883 25.2503 76.9986 24.9073 76.638 24.4543C76.2829 23.9969 76.1053 23.4274 76.1053 22.7457C76.1053 22.1717 76.2317 21.6896 76.4847 21.2995C76.7376 20.9093 77.082 20.5954 77.5179 20.3577C77.9538 20.12 78.4489 19.9406 79.0032 19.8196C79.5629 19.6985 80.1494 19.6133 80.7629 19.5639C81.484 19.5012 82.0652 19.4429 82.5065 19.389C82.9478 19.3307 83.268 19.2455 83.4671 19.1334C83.6662 19.0213 83.7658 18.8554 83.7658 18.6356V18.5953C83.7658 18.1692 83.6043 17.8396 83.2814 17.6064C82.9639 17.3732 82.5119 17.2566 81.9253 17.2566C81.3064 17.2566 80.814 17.371 80.4481 17.5997C80.0822 17.8239 79.84 18.1065 79.7216 18.4473L76.5412 18.232C76.7026 17.6042 77.0201 17.0616 77.4937 16.6041C77.9673 16.1422 78.5781 15.7879 79.3261 15.5413C80.0795 15.2902 80.9513 15.1646 81.9415 15.1646C82.6303 15.1646 83.2895 15.2319 83.9191 15.3664C84.5542 15.5009 85.1165 15.7095 85.6062 15.992C86.1013 16.2745 86.4915 16.6378 86.7767 17.0817C87.0619 17.5212 87.2045 18.0482 87.2045 18.6625V25.6315H83.9434V24.1987H83.8465C83.6474 24.5216 83.381 24.8064 83.0473 25.053C82.7137 25.2952 82.3128 25.4858 81.8446 25.6248C81.3764 25.7593 80.8356 25.8266 80.2221 25.8266ZM81.2069 23.8489C81.7127 23.8489 82.1594 23.7659 82.5469 23.6C82.9343 23.4296 83.2384 23.2009 83.459 22.9139C83.6797 22.6269 83.79 22.3017 83.79 21.9385V20.842C83.6824 20.9003 83.5344 20.9541 83.346 21.0035C83.163 21.0483 82.9559 21.0909 82.7245 21.1313C82.4931 21.1672 82.2617 21.2008 82.0303 21.2322C81.7989 21.2591 81.589 21.2838 81.4006 21.3062C80.997 21.3555 80.6445 21.434 80.3432 21.5416C80.0418 21.6492 79.8077 21.795 79.6409 21.9789C79.4741 22.1582 79.3907 22.3825 79.3907 22.6515C79.3907 23.0417 79.5602 23.3399 79.8992 23.5462C80.2436 23.748 80.6795 23.8489 81.2069 23.8489Z" fill="#0C0F12"/>
<path d="M99.734 18.2455L96.5858 18.4069C96.532 18.1827 96.4163 17.9809 96.2387 17.8015C96.0611 17.6176 95.8271 17.4719 95.5365 17.3643C95.2512 17.2522 94.9095 17.1961 94.5113 17.1961C93.9785 17.1961 93.5292 17.2903 93.1632 17.4786C92.7973 17.6625 92.6143 17.9091 92.6143 18.2186C92.6143 18.4652 92.7327 18.6738 92.9695 18.8442C93.2063 19.0146 93.6126 19.1514 94.1884 19.2545L96.4325 19.6312C97.6379 19.8375 98.5366 20.1693 99.1286 20.6268C99.7205 21.0842 100.017 21.6851 100.017 22.4296C100.017 23.1067 99.777 23.7009 99.2981 24.2122C98.8245 24.7234 98.1734 25.1225 97.3446 25.4095C96.5213 25.6921 95.5714 25.8333 94.4951 25.8333C92.8538 25.8333 91.5461 25.5486 90.5721 24.979C89.6034 24.405 89.0357 23.6247 88.8688 22.6381L92.2511 22.4901C92.3533 22.9072 92.6009 23.2256 92.9937 23.4453C93.3866 23.6606 93.8897 23.7682 94.5032 23.7682C95.1059 23.7682 95.5903 23.6718 95.9562 23.4789C96.3275 23.2816 96.5159 23.0282 96.5213 22.7188C96.5159 22.4587 96.384 22.2457 96.1257 22.0798C95.8674 21.9093 95.4692 21.7793 94.931 21.6896L92.7838 21.3331C91.573 21.1313 90.6716 20.7815 90.0797 20.2837C89.4931 19.7859 89.1998 19.1514 89.1998 18.38C89.1998 17.7163 89.4151 17.1445 89.8456 16.6647C90.2815 16.1848 90.8923 15.8149 91.678 15.5548C92.469 15.2947 93.3946 15.1646 94.4548 15.1646C96.0208 15.1646 97.2531 15.4404 98.1518 15.992C99.0559 16.5436 99.5833 17.2948 99.734 18.2455Z" fill="#0C0F12"/>
<path d="M112.043 18.2455L108.895 18.4069C108.842 18.1827 108.726 17.9809 108.548 17.8015C108.371 17.6176 108.137 17.4719 107.846 17.3643C107.561 17.2522 107.219 17.1961 106.821 17.1961C106.288 17.1961 105.839 17.2903 105.473 17.4786C105.107 17.6625 104.924 17.9091 104.924 18.2186C104.924 18.4652 105.042 18.6738 105.279 18.8442C105.516 19.0146 105.922 19.1514 106.498 19.2545L108.742 19.6312C109.947 19.8375 110.846 20.1693 111.438 20.6268C112.03 21.0842 112.326 21.6851 112.326 22.4296C112.326 23.1067 112.087 23.7009 111.608 24.2122C111.134 24.7234 110.483 25.1225 109.654 25.4095C108.831 25.6921 107.881 25.8333 106.805 25.8333C105.163 25.8333 103.856 25.5486 102.882 24.979C101.913 24.405 101.345 23.6247 101.178 22.6381L104.561 22.4901C104.663 22.9072 104.91 23.2256 105.303 23.4453C105.696 23.6606 106.199 23.7682 106.813 23.7682C107.415 23.7682 107.9 23.6718 108.266 23.4789C108.637 23.2816 108.825 23.0282 108.831 22.7188C108.825 22.4587 108.694 22.2457 108.435 22.0798C108.177 21.9093 107.779 21.7793 107.241 21.6896L105.093 21.3331C103.883 21.1313 102.981 20.7815 102.389 20.2837C101.803 19.7859 101.509 19.1514 101.509 18.38C101.509 17.7163 101.725 17.1445 102.155 16.6647C102.591 16.1848 103.202 15.8149 103.987 15.5548C104.779 15.2947 105.704 15.1646 106.764 15.1646C108.33 15.1646 109.563 15.4404 110.461 15.992C111.365 16.5436 111.893 17.2948 112.043 18.2455Z" fill="#0C0F12"/>
</svg>
