
<svg width="16" height="16" viewBox="0 0 16 16" fill="none" xmlns="http://www.w3.org/2000/svg">
<path fill-rule="evenodd" clip-rule="evenodd" d="M8.6734 1.0031C8.54739 0.746183 8.28618 0.583357 8.00003 0.583357C7.71387 0.583357 7.45266 0.746182 7.32665 1.0031L5.50041 4.72664L1.89079 5.25802C1.61006 5.29935 1.37669 5.49557 1.28778 5.76503C1.19888 6.0345 1.26966 6.33107 1.47068 6.53134L4.17678 9.22739L3.26863 13.2274C3.20408 13.5118 3.31017 13.8077 3.54064 13.9863C3.77112 14.1649 4.08421 14.1937 4.34342 14.0602L8.00002 12.177L11.6566 14.0602C11.9158 14.1937 12.2289 14.1649 12.4594 13.9863C12.6899 13.8077 12.796 13.5118 12.7314 13.2274L11.8233 9.22739L14.5294 6.53134C14.7304 6.33107 14.8012 6.0345 14.7123 5.76503C14.6234 5.49557 14.39 5.29935 14.1093 5.25802L10.4996 4.72664L8.6734 1.0031Z" fill="#F2A541"/>
</svg>
