<svg width="24" height="24" viewBox="0 0 24 24" fill="none" xmlns="http://www.w3.org/2000/svg">
<path fill-rule="evenodd" clip-rule="evenodd" d="M12 3.75C7.44365 3.75 3.75 7.44365 3.75 12C3.75 12.9766 3.98831 13.9792 4.30809 14.8783L4.31311 14.8924C4.57195 15.6201 4.77257 16.1842 4.91115 16.6183C5.04587 17.0403 5.14598 17.4095 5.16562 17.7218C5.1813 17.9712 5.18681 18.1893 5.15832 18.4195C5.12983 18.6497 5.0713 18.8599 4.9953 19.0979C4.90459 19.382 4.75975 19.6573 4.57853 19.9569C4.52323 20.0483 4.46217 20.1457 4.39535 20.25H12C16.5564 20.25 20.25 16.5563 20.25 12C20.25 7.44365 16.5564 3.75 12 3.75ZM2.25 12C2.25 6.61522 6.61522 2.25 12 2.25C17.3848 2.25 21.75 6.61522 21.75 12C21.75 17.3848 17.3848 21.75 12 21.75H3C2.7234 21.75 2.46926 21.5978 2.33875 21.3539C2.20823 21.11 2.22254 20.8141 2.37596 20.584L2.60092 20.2465C2.91394 19.777 3.135 19.4451 3.29509 19.1805C3.45516 18.9159 3.529 18.7587 3.56638 18.6416C3.63414 18.4294 3.65857 18.325 3.66968 18.2352C3.68079 18.1455 3.68255 18.0383 3.66858 17.816C3.66179 17.7081 3.61715 17.4972 3.4822 17.0745C3.35199 16.6666 3.1597 16.1257 2.89482 15.3809C2.54104 14.3862 2.25 13.2061 2.25 12Z" fill="#0C0F12"/>
</svg>
