<svg width="20" height="20" viewBox="0 0 20 20" fill="none" xmlns="http://www.w3.org/2000/svg">
<path fill-rule="evenodd" clip-rule="evenodd" d="M7.4165 5.83333C7.4165 4.4066 8.5731 3.25 9.99984 3.25C11.4266 3.25 12.5832 4.4066 12.5832 5.83333C12.5832 7.26007 11.4266 8.41667 9.99984 8.41667C8.5731 8.41667 7.4165 7.26007 7.4165 5.83333ZM9.99984 1.75C7.74467 1.75 5.9165 3.57817 5.9165 5.83333C5.9165 8.0885 7.74467 9.91667 9.99984 9.91667C12.255 9.91667 14.0832 8.0885 14.0832 5.83333C14.0832 3.57817 12.255 1.75 9.99984 1.75ZM4.9165 15.8333C4.9165 14.4066 6.0731 13.25 7.49984 13.25H12.4998C13.9266 13.25 15.0832 14.4066 15.0832 15.8333C15.0832 16.3396 14.6728 16.75 14.1665 16.75H5.83317C5.32691 16.75 4.9165 16.3396 4.9165 15.8333ZM14.1665 18.25C15.5012 18.25 16.5832 17.168 16.5832 15.8333C16.5832 13.5782 14.755 11.75 12.4998 11.75H7.49984C5.24467 11.75 3.4165 13.5782 3.4165 15.8333C3.4165 17.168 4.49848 18.25 5.83317 18.25H14.1665Z" fill="#22282F"/>
</svg>
