<svg width="20" height="20" viewBox="0 0 20 20" fill="none" xmlns="http://www.w3.org/2000/svg">
<path fill-rule="evenodd" clip-rule="evenodd" d="M7.52703 4.25007C7.84838 3.18906 8.8339 2.41666 9.99984 2.41666C11.1658 2.41666 12.1513 3.18906 12.4726 4.25007L12.1141 4.24999H12.0832H7.9165H7.88562L7.52703 4.25007ZM5.98178 4.26882C6.32639 2.36256 7.99426 0.916656 9.99984 0.916656C12.0054 0.916656 13.6733 2.36256 14.0179 4.26882C14.2259 4.2761 14.4206 4.28619 14.6032 4.30019C15.2726 4.35151 15.8407 4.45852 16.3641 4.70604C17.3575 5.1759 18.1573 5.97568 18.6271 6.9691C18.8746 7.49244 18.9816 8.06051 19.033 8.72999C19.0832 9.38494 19.0832 10.1959 19.0832 11.2191V11.25V11.2809C19.0832 12.3041 19.0832 13.115 19.033 13.77C18.9816 14.4395 18.8746 15.0075 18.6271 15.5309C18.1573 16.5243 17.3575 17.3241 16.3641 17.7939C15.8407 18.0415 15.2726 18.1485 14.6032 18.1998C13.9483 18.25 13.1375 18.25 12.1144 18.25H12.1143H12.1143H12.1142H12.114H12.0832H7.91651H7.88563H7.88547H7.88542H7.88537H7.88532C6.86222 18.25 6.05139 18.25 5.39651 18.1998C4.72703 18.1485 4.15895 18.0415 3.63562 17.7939C2.64219 17.3241 1.84241 16.5243 1.37256 15.5309C1.12503 15.0075 1.01803 14.4395 0.966704 13.77C0.916495 13.115 0.916499 12.3041 0.916504 11.2809L0.916504 11.25L0.916504 11.2191C0.916499 10.1959 0.916495 9.38494 0.966704 8.72999C1.01803 8.06051 1.12503 7.49244 1.37256 6.9691C1.84241 5.97568 2.64219 5.1759 3.63562 4.70604C4.15895 4.45852 4.72703 4.35151 5.3965 4.30019C5.57907 4.28619 5.77376 4.2761 5.98178 4.26882ZM2.4165 11.25C2.4165 12.311 2.41702 13.0644 2.46232 13.6553C2.507 14.2383 2.59202 14.6009 2.72854 14.8895C3.05002 15.5693 3.59724 16.1165 4.27695 16.438C4.5656 16.5745 4.92823 16.6595 5.51116 16.7042C6.10205 16.7495 6.85552 16.75 7.91651 16.75H12.0832C13.1442 16.75 13.8976 16.7495 14.4885 16.7042C15.0714 16.6595 15.4341 16.5745 15.7227 16.438C16.4024 16.1165 16.9497 15.5693 17.2711 14.8895C17.4077 14.6009 17.4927 14.2383 17.5374 13.6553C17.5827 13.0644 17.5832 12.311 17.5832 11.25C17.5832 10.8234 17.5831 10.4466 17.58 10.11L17.5288 10.1293C17.0964 10.2915 16.4782 10.5064 15.7267 10.7211C15.2338 10.862 14.6809 11.0035 14.0832 11.13V11.6667C14.0832 12.0809 13.7474 12.4167 13.3332 12.4167C12.919 12.4167 12.5832 12.0809 12.5832 11.6667V11.3949C11.7627 11.5104 10.8917 11.5833 9.99984 11.5833C9.10796 11.5833 8.23699 11.5104 7.4165 11.3949V11.6667C7.4165 12.0809 7.08072 12.4167 6.6665 12.4167C6.25229 12.4167 5.9165 12.0809 5.9165 11.6667V11.13C5.31882 11.0035 4.76586 10.862 4.27296 10.7211C3.52148 10.5064 2.90324 10.2915 2.47087 10.1293L2.41963 10.11C2.41659 10.4466 2.4165 10.8234 2.4165 11.25ZM14.0832 9.59438V9.16666C14.0832 8.75244 13.7474 8.41666 13.3332 8.41666C12.919 8.41666 12.5832 8.75244 12.5832 9.16666V9.879C11.7629 10.0035 10.8897 10.0833 9.99984 10.0833C9.10994 10.0833 8.23681 10.0035 7.4165 9.879V9.16666C7.4165 8.75244 7.08072 8.41666 6.6665 8.41666C6.25229 8.41666 5.9165 8.75244 5.9165 9.16666V9.59438C5.47647 9.49462 5.06344 9.38696 4.68505 9.27885C3.9782 9.07689 3.39852 8.87519 2.99756 8.72483C2.79721 8.6497 2.64187 8.58753 2.538 8.54476L2.49331 8.52625L2.49896 8.4812C2.5481 8.10145 2.6229 7.8338 2.72854 7.61044C3.05002 6.93072 3.59724 6.38351 4.27695 6.06202C4.5656 5.9255 4.92823 5.84049 5.51116 5.7958C6.10205 5.7505 6.85551 5.74999 7.9165 5.74999H12.0832C13.1442 5.74999 13.8976 5.7505 14.4885 5.7958C15.0714 5.84049 15.4341 5.9255 15.7227 6.06202C16.4024 6.38351 16.9497 6.93072 17.2711 7.61044C17.3768 7.83382 17.4516 8.1015 17.5007 8.4813L17.5064 8.52624L17.4617 8.54476C17.3578 8.58753 17.2025 8.6497 17.0021 8.72483C16.6012 8.87519 16.0215 9.07689 15.3146 9.27885C14.9362 9.38696 14.5232 9.49462 14.0832 9.59438Z" fill="#22282F"/>
</svg>
