<svg width="113" height="32" viewBox="0 0 113 32" fill="none" xmlns="http://www.w3.org/2000/svg">
<rect y="12.8" width="6.39999" height="6.39999" fill="#039855"/>
<rect x="19.2" y="19.2" width="6.4" height="6.39999" transform="rotate(180 19.2 19.2)" fill="#027A48"/>
<path d="M6.3999 12.8L12.7999 6.39999V12.8L6.3999 19.2V12.8Z" fill="#A6F4C5"/>
<path d="M12.8 19.2L6.40006 25.6L6.40006 19.2L12.8 12.8L12.8 19.2Z" fill="#6CE9A6"/>
<path d="M0 12.8L12.8 0V6.39999L6.39999 12.8H0Z" fill="#32D583"/>
<path d="M19.2 19.2L6.39997 32L6.39997 25.6L12.8 19.2L19.2 19.2Z" fill="#12B76A"/>
<path d="M33.1386 22.8533C32.1306 22.8533 31.1537 22.7102 30.2079 22.424C29.2746 22.1378 28.5341 21.7582 27.9866 21.2853L28.8266 19.4C29.3617 19.8231 30.015 20.1716 30.7866 20.4453C31.5706 20.7067 32.3546 20.8373 33.1386 20.8373C34.1092 20.8373 34.831 20.6818 35.3039 20.3707C35.7892 20.0596 36.0319 19.6489 36.0319 19.1387C36.0319 18.7653 35.895 18.4605 35.6212 18.224C35.3599 17.9751 35.0239 17.7822 34.6132 17.6453C34.2026 17.5085 33.6426 17.3529 32.9332 17.1787C31.9377 16.9422 31.1288 16.7058 30.5066 16.4693C29.8968 16.2329 29.3679 15.8658 28.9199 15.368C28.4843 14.8578 28.2666 14.1733 28.2666 13.3147C28.2666 12.5929 28.4595 11.9396 28.8452 11.3547C29.2435 10.7573 29.8346 10.2845 30.6186 9.93601C31.415 9.58757 32.3857 9.41334 33.5306 9.41334C34.327 9.41334 35.111 9.5129 35.8826 9.71201C36.6541 9.91112 37.3199 10.1973 37.8799 10.5707L37.1146 12.456C36.5421 12.12 35.9448 11.8649 35.3226 11.6907C34.7003 11.5165 34.0968 11.4293 33.5119 11.4293C32.5537 11.4293 31.8381 11.5911 31.3652 11.9147C30.9048 12.2382 30.6746 12.6676 30.6746 13.2027C30.6746 13.576 30.8052 13.8809 31.0666 14.1173C31.3403 14.3538 31.6826 14.5405 32.0932 14.6773C32.5039 14.8142 33.0639 14.9698 33.7732 15.144C34.7439 15.368 35.5403 15.6045 36.1626 15.8533C36.7848 16.0898 37.3137 16.4569 37.7492 16.9547C38.1972 17.4525 38.4212 18.1245 38.4212 18.9707C38.4212 19.6925 38.2221 20.3458 37.8239 20.9307C37.4381 21.5156 36.847 21.9822 36.0506 22.3307C35.2541 22.6791 34.2835 22.8533 33.1386 22.8533Z" fill="#101828"/>
<path d="M40.6035 12.6987H42.9368V22.6667H40.6035V12.6987ZM41.7795 11.056C41.3564 11.056 41.0017 10.9253 40.7155 10.664C40.4293 10.3902 40.2862 10.0542 40.2862 9.65601C40.2862 9.25779 40.4293 8.92801 40.7155 8.66668C41.0017 8.3929 41.3564 8.25601 41.7795 8.25601C42.2026 8.25601 42.5573 8.38668 42.8435 8.64801C43.1297 8.8969 43.2728 9.21423 43.2728 9.60001C43.2728 10.0107 43.1297 10.3591 42.8435 10.6453C42.5697 10.9191 42.215 11.056 41.7795 11.056Z" fill="#101828"/>
<path d="M49.0793 22.7973C48.2704 22.7973 47.4802 22.6916 46.7086 22.48C45.9371 22.2685 45.3211 22.0009 44.8606 21.6773L45.7566 19.904C46.2046 20.2027 46.7398 20.4453 47.362 20.632C47.9966 20.8062 48.6189 20.8933 49.2286 20.8933C50.6224 20.8933 51.3193 20.5262 51.3193 19.792C51.3193 19.4436 51.1389 19.2009 50.778 19.064C50.4295 18.9271 49.8633 18.7965 49.0793 18.672C48.258 18.5476 47.586 18.4045 47.0633 18.2427C46.5531 18.0809 46.1051 17.8009 45.7193 17.4027C45.346 16.992 45.1593 16.4258 45.1593 15.704C45.1593 14.7582 45.5513 14.0053 46.3353 13.4453C47.1318 12.8729 48.202 12.5867 49.546 12.5867C50.2304 12.5867 50.9149 12.6676 51.5993 12.8293C52.2838 12.9787 52.8438 13.184 53.2793 13.4453L52.3833 15.2187C51.5371 14.7209 50.5851 14.472 49.5273 14.472C48.8429 14.472 48.3202 14.5778 47.9593 14.7893C47.6109 14.9885 47.4366 15.256 47.4366 15.592C47.4366 15.9653 47.6233 16.2329 47.9966 16.3947C48.3824 16.544 48.9735 16.6871 49.77 16.824C50.5664 16.9485 51.2198 17.0916 51.73 17.2533C52.2402 17.4151 52.6758 17.6889 53.0366 18.0747C53.41 18.4605 53.5966 19.008 53.5966 19.7173C53.5966 20.6507 53.1922 21.3973 52.3833 21.9573C51.5744 22.5173 50.4731 22.7973 49.0793 22.7973Z" fill="#101828"/>
<path d="M64.7571 12.6987L60.0905 23.4693C59.6549 24.552 59.126 25.3111 58.5038 25.7467C57.8816 26.1947 57.1287 26.4187 56.2451 26.4187C55.7473 26.4187 55.2558 26.3378 54.7705 26.176C54.2851 26.0142 53.8869 25.7902 53.5758 25.504L54.5091 23.7867C54.7331 23.9982 54.9945 24.1662 55.2931 24.2907C55.6042 24.4151 55.9153 24.4773 56.2265 24.4773C56.6371 24.4773 56.9731 24.3716 57.2345 24.16C57.5082 23.9485 57.7571 23.5938 57.9811 23.096L58.1491 22.704L53.7998 12.6987H56.2265L59.3625 20.072L62.5171 12.6987H64.7571Z" fill="#101828"/>
<path d="M71.7408 12.5867C72.7114 12.5867 73.5763 12.7982 74.3354 13.2213C75.107 13.6445 75.7106 14.2418 76.1461 15.0133C76.5817 15.7849 76.7994 16.6747 76.7994 17.6827C76.7994 18.6907 76.5817 19.5867 76.1461 20.3707C75.7106 21.1422 75.107 21.7396 74.3354 22.1627C73.5763 22.5858 72.7114 22.7973 71.7408 22.7973C70.3968 22.7973 69.3328 22.3493 68.5488 21.4533V26.288H66.2155V12.6987H68.4368V14.0053C68.8226 13.5325 69.2955 13.1778 69.8554 12.9413C70.4279 12.7049 71.0563 12.5867 71.7408 12.5867ZM71.4795 20.8C72.3381 20.8 73.0412 20.5138 73.5888 19.9413C74.1488 19.3689 74.4288 18.616 74.4288 17.6827C74.4288 16.7493 74.1488 15.9965 73.5888 15.424C73.0412 14.8516 72.3381 14.5653 71.4795 14.5653C70.9194 14.5653 70.4155 14.696 69.9674 14.9573C69.5195 15.2062 69.1648 15.5671 68.9035 16.04C68.6421 16.5129 68.5115 17.0605 68.5115 17.6827C68.5115 18.3049 68.6421 18.8525 68.9035 19.3253C69.1648 19.7982 69.5195 20.1653 69.9674 20.4267C70.4155 20.6756 70.9194 20.8 71.4795 20.8Z" fill="#101828"/>
<path d="M84.6683 12.5867C85.9252 12.5867 86.9332 12.9538 87.6923 13.688C88.4514 14.4222 88.831 15.5111 88.831 16.9547V22.6667H86.4977V17.2533C86.4977 16.3822 86.2923 15.7289 85.8816 15.2933C85.471 14.8453 84.8861 14.6213 84.127 14.6213C83.2683 14.6213 82.5901 14.8827 82.0923 15.4053C81.5945 15.9156 81.3456 16.656 81.3456 17.6267V22.6667H79.0123V8.81601H81.3456V13.856C81.7314 13.4453 82.2043 13.1342 82.7643 12.9227C83.3368 12.6987 83.9714 12.5867 84.6683 12.5867Z" fill="#101828"/>
<path d="M101.442 12.6987V22.6667H99.2203V21.3973C98.847 21.8453 98.3803 22.1938 97.8203 22.4427C97.2603 22.6791 96.6567 22.7973 96.0096 22.7973C94.6781 22.7973 93.6265 22.4302 92.855 21.696C92.0958 20.9493 91.7163 19.848 91.7163 18.392V12.6987H94.0496V18.0747C94.0496 18.9707 94.2487 19.6427 94.647 20.0907C95.0576 20.5262 95.6363 20.744 96.383 20.744C97.2167 20.744 97.8763 20.4889 98.3616 19.9787C98.8594 19.456 99.1083 18.7093 99.1083 17.7387V12.6987H101.442Z" fill="#101828"/>
<path d="M107.577 22.7973C106.768 22.7973 105.978 22.6916 105.206 22.48C104.434 22.2685 103.818 22.0009 103.358 21.6773L104.254 19.904C104.702 20.2027 105.237 20.4453 105.859 20.632C106.494 20.8062 107.116 20.8933 107.726 20.8933C109.12 20.8933 109.817 20.5262 109.817 19.792C109.817 19.4436 109.636 19.2009 109.275 19.064C108.927 18.9271 108.361 18.7965 107.577 18.672C106.755 18.5476 106.083 18.4045 105.561 18.2427C105.05 18.0809 104.602 17.8009 104.217 17.4027C103.843 16.992 103.657 16.4258 103.657 15.704C103.657 14.7582 104.049 14.0053 104.833 13.4453C105.629 12.8729 106.699 12.5867 108.043 12.5867C108.728 12.5867 109.412 12.6676 110.097 12.8293C110.781 12.9787 111.341 13.184 111.777 13.4453L110.881 15.2187C110.034 14.7209 109.082 14.472 108.025 14.472C107.34 14.472 106.818 14.5778 106.457 14.7893C106.108 14.9885 105.934 15.256 105.934 15.592C105.934 15.9653 106.121 16.2329 106.494 16.3947C106.88 16.544 107.471 16.6871 108.267 16.824C109.064 16.9485 109.717 17.0916 110.227 17.2533C110.738 17.4151 111.173 17.6889 111.534 18.0747C111.907 18.4605 112.094 19.008 112.094 19.7173C112.094 20.6507 111.69 21.3973 110.881 21.9573C110.072 22.5173 108.97 22.7973 107.577 22.7973Z" fill="#101828"/>
</svg>
