<svg width="20" height="20" viewBox="0 0 20 20" fill="none" xmlns="http://www.w3.org/2000/svg">
<path fill-rule="evenodd" clip-rule="evenodd" d="M4.0835 8.45679C4.0835 6.39216 4.83668 4.90112 5.92019 3.92016C7.01647 2.92764 8.49706 2.41664 10.0002 2.41664C11.5033 2.41665 12.9838 2.92765 14.0801 3.92018C15.1636 4.90114 15.9168 6.39218 15.9168 8.45679C15.9168 11.1964 14.2332 13.596 12.5242 15.3116C12.2133 15.6237 12.0339 15.8009 11.831 15.9451C11.6435 16.0783 11.4128 16.1981 11.007 16.3303C10.8416 16.3842 10.4601 16.431 10.0003 16.4311C9.54057 16.4311 9.15904 16.3842 8.99368 16.3304C8.58787 16.1982 8.3571 16.0783 8.16961 15.9451C7.96674 15.801 7.78734 15.6238 7.47644 15.3117C5.76729 13.5961 4.0835 11.1964 4.0835 8.45679ZM17.4168 8.45679C17.4168 5.99466 16.5033 4.09062 15.0869 2.8082C13.6831 1.53734 11.8304 0.916646 10.0002 0.916641C8.16993 0.916637 6.31718 1.53732 4.91346 2.80818C3.49697 4.0906 2.5835 5.99464 2.5835 8.45679C2.5835 11.7994 4.61478 14.5646 6.41379 16.3704L6.43831 16.395C6.71886 16.6767 6.98375 16.9426 7.3008 17.1679C7.64246 17.4107 8.01953 17.5906 8.5291 17.7566C8.92694 17.8862 9.50276 17.9311 10.0004 17.9311C10.498 17.931 11.0738 17.8862 11.4716 17.7565C11.9812 17.5905 12.3582 17.4106 12.6999 17.1678C13.0169 16.9425 13.2818 16.6765 13.5623 16.3949L13.5869 16.3702C15.3857 14.5645 17.4168 11.7993 17.4168 8.45679ZM8.25016 8.33333C8.25016 7.36684 9.03366 6.58333 10.0002 6.58333C10.9667 6.58333 11.7502 7.36684 11.7502 8.33333C11.7502 9.29983 10.9667 10.0833 10.0002 10.0833C9.03366 10.0833 8.25016 9.29983 8.25016 8.33333ZM10.0002 5.08333C8.20524 5.08333 6.75016 6.53841 6.75016 8.33333C6.75016 10.1283 8.20524 11.5833 10.0002 11.5833C11.7951 11.5833 13.2502 10.1283 13.2502 8.33333C13.2502 6.53841 11.7951 5.08333 10.0002 5.08333Z" fill="#0C0F12"/>
</svg>
